# xmcd
#
# Track frame offsets: 
#        150
#        10785
#        24472
#        36377
#        50352
#        63217
#        74415
#        87567
#        99107
#        114277
#        126275
#        139435
#        151282
#        165027
#        179625
#        192055
#        205842
#        221780
#        234915
#        247680
#        259537
#        273062
#        286855
#        300035
#        313160
#        324287
#        338587
#
# Disc length: 4695 seconds
#
# Revision: 1
# Processed by: cddbd v1.5.2PL0 Copyright (c) Steve Scherf et al.
# Submitted via: ExactAudioCopyFreeDBPlugin 1.0
#
DISCID=6212551b
DTITLE=Various Artist - A Shot in the Dark:  Nashville Jumps - Blues 
DTITLE=and Rhythm on Nashville Independent Labels, 1945-1955
DYEAR=2000
DGENRE=Rhythm and Blues
TTITLE0=The Daddy Dean Orchestra - Love Me a Long Long Time
TTITLE1=The Daddy Dean Orchestra - The Road
TTITLE2=Richard Armstrong - Gene Nobles' Boogie
TTITLE3=The BlueJacks - Late Hour Blues
TTITLE4=Jimmy Sweeney - Boogie Woogie Jockey
TTITLE5=Tommy Brooks - Steam Pressing Woman
TTITLE6=Tommy Brooks - If You Love Me Baby
TTITLE7=Charles Ruckles - Pitch a Boogie Woogie
TTITLE8=Charles Ruckles - I Got a Feelin'
TTITLE9=Louis Brooks - Almost Boogie
TTITLE10=Louis Brooks - Wine Hangover
TTITLE11=Bernard Hardison - Hey Little Girl
TTITLE12=Bernard Hardison - Love You Baby
TTITLE13=Billie McAllister - Walking in a Daze
TTITLE14=Billie McAllister - I Go for That
TTITLE15=Helen Foster - I Got a Big Fat Daddy
TTITLE16=Christine Kittrell - Don't Do It
TTITLE17=Christine Kittrell - Old Man You're Slipping
TTITLE18=Billie McAllister - Well Alright Baby
TTITLE19=Billie McAllister - 31 E. Blues
TTITLE20=Julius King - I Want a Slice of Your Puddin'
TTITLE21=Julius King - If You See My Lover
TTITLE22=Robert Tucker - Changeable Woman
TTITLE23=Robert Tucker - It Sure Costs Money to Live
TTITLE24=Louis Brooks - Keep Pushing
TTITLE25=Julius King - Mississippi Boogie
TTITLE26=Julius King - One O'Clock Boogie
EXTD=
EXTT0=
EXTT1=
EXTT2=
EXTT3=
EXTT4=
EXTT5=
EXTT6=
EXTT7=
EXTT8=
EXTT9=
EXTT10=
EXTT11=
EXTT12=
EXTT13=
EXTT14=
EXTT15=
EXTT16=
EXTT17=
EXTT18=
EXTT19=
EXTT20=
EXTT21=
EXTT22=
EXTT23=
EXTT24=
EXTT25=
EXTT26=
PLAYORDER=
